<svg width="39" height="37" viewBox="0 0 39 37" fill="none" xmlns="http://www.w3.org/2000/svg">
<g id="account_circle">
<path id="icon" d="M9.50625 25.982C10.8875 25.007 12.4313 24.2382 14.1375 23.6757C15.8438 23.1132 17.6313 22.832 19.5 22.832C21.3687 22.832 23.1562 23.1132 24.8625 23.6757C26.5688 24.2382 28.1125 25.007 29.4937 25.982C30.4417 24.957 31.1797 23.7945 31.7078 22.4945C32.2359 21.1945 32.5 19.807 32.5 18.332C32.5 15.007 31.2339 12.1757 28.7016 9.83822C26.1693 7.50072 23.1021 6.33197 19.5 6.33197C15.8979 6.33197 12.8307 7.50072 10.2984 9.83822C7.76615 12.1757 6.5 15.007 6.5 18.332C6.5 19.807 6.76406 21.1945 7.29219 22.4945C7.82031 23.7945 8.55833 24.957 9.50625 25.982ZM19.5 19.832C17.9021 19.832 16.5547 19.3257 15.4578 18.3132C14.3609 17.3007 13.8125 16.057 13.8125 14.582C13.8125 13.107 14.3609 11.8632 15.4578 10.8507C16.5547 9.83822 17.9021 9.33197 19.5 9.33197C21.0979 9.33197 22.4453 9.83822 23.5422 10.8507C24.6391 11.8632 25.1875 13.107 25.1875 14.582C25.1875 16.057 24.6391 17.3007 23.5422 18.3132C22.4453 19.3257 21.0979 19.832 19.5 19.832ZM19.5 33.332C17.2521 33.332 15.1396 32.9382 13.1625 32.1507C11.1854 31.3632 9.46562 30.2945 8.00312 28.9445C6.54062 27.5945 5.38281 26.007 4.52969 24.182C3.67656 22.357 3.25 20.407 3.25 18.332C3.25 16.257 3.67656 14.307 4.52969 12.482C5.38281 10.657 6.54062 9.06947 8.00312 7.71947C9.46562 6.36947 11.1854 5.30072 13.1625 4.51322C15.1396 3.72572 17.2521 3.33197 19.5 3.33197C21.7479 3.33197 23.8604 3.72572 25.8375 4.51322C27.8146 5.30072 29.5344 6.36947 30.9969 7.71947C32.4594 9.06947 33.6172 10.657 34.4703 12.482C35.3234 14.307 35.75 16.257 35.75 18.332C35.75 20.407 35.3234 22.357 34.4703 24.182C33.6172 26.007 32.4594 27.5945 30.9969 28.9445C29.5344 30.2945 27.8146 31.3632 25.8375 32.1507C23.8604 32.9382 21.7479 33.332 19.5 33.332Z" fill="#1D1B20"/>
</g>
</svg>
