<svg width="56" height="56" viewBox="0 0 56 56" fill="none" xmlns="http://www.w3.org/2000/svg">
<g id="Account">
<g id="+_icon">
<g id="Group 10">
<g id="Ellipse 21" filter="url(#filter0_d_20_283)">
<ellipse cx="28" cy="27.5151" rx="23.6195" ry="23.5023" transform="rotate(0.0306962 28 27.5151)" fill="#4CBB9B"/>
</g>
<path id="Vector" d="M38.4319 24.3883L31.3722 24.3845L31.376 17.3599C31.3769 15.634 29.9209 14.2206 28.1858 14.2196C26.4507 14.2187 24.9932 15.6306 24.9923 17.3565L24.9885 24.3811L17.9289 24.3773C16.1944 24.3764 14.7739 25.8252 14.773 27.5516C14.7721 29.2781 16.191 30.7284 17.9255 30.7293L24.9851 30.7331L24.9814 37.7577C24.9805 39.4836 26.4365 40.897 28.1715 40.898C29.9066 40.8989 31.3641 39.487 31.365 37.7612L31.3688 30.7365L38.4285 30.7403C40.1629 30.7412 41.5834 29.2925 41.5843 27.566C41.5853 25.8395 40.1663 24.3892 38.4319 24.3883Z" fill="#FCFCFC"/>
</g>
</g>
</g>
<defs>
<filter id="filter0_d_20_283" x="0.380493" y="0.0127563" width="55.239" height="55.0047" filterUnits="userSpaceOnUse" color-interpolation-filters="sRGB">
<feFlood flood-opacity="0" result="BackgroundImageFix"/>
<feColorMatrix in="SourceAlpha" type="matrix" values="0 0 0 0 0 0 0 0 0 0 0 0 0 0 0 0 0 0 127 0" result="hardAlpha"/>
<feOffset/>
<feGaussianBlur stdDeviation="2"/>
<feColorMatrix type="matrix" values="0 0 0 0 0 0 0 0 0 0 0 0 0 0 0 0 0 0 0.25 0"/>
<feBlend mode="normal" in2="BackgroundImageFix" result="effect1_dropShadow_20_283"/>
<feBlend mode="normal" in="SourceGraphic" in2="effect1_dropShadow_20_283" result="shape"/>
</filter>
</defs>
</svg>
