<svg width="24" height="22" viewBox="0 0 24 22" fill="none" xmlns="http://www.w3.org/2000/svg">
<path id="Icon" d="M16.5455 19.5V17.6111C16.5455 16.6092 16.1623 15.6483 15.4804 14.9398C14.7984 14.2313 13.8735 13.8333 12.9091 13.8333H5.63636C4.67194 13.8333 3.74702 14.2313 3.06507 14.9398C2.38312 15.6483 2 16.6092 2 17.6111V19.5M22 19.5V17.6111C21.9994 16.7741 21.7312 15.961 21.2376 15.2994C20.744 14.6379 20.0528 14.1654 19.2727 13.9561M15.6364 2.62278C16.4186 2.83084 17.1119 3.30344 17.6069 3.96607C18.102 4.6287 18.3708 5.44367 18.3708 6.2825C18.3708 7.12133 18.102 7.9363 17.6069 8.59893C17.1119 9.26156 16.4186 9.73416 15.6364 9.94222M12.9091 6.27778C12.9091 8.36419 11.281 10.0556 9.27273 10.0556C7.26442 10.0556 5.63636 8.36419 5.63636 6.27778C5.63636 4.19137 7.26442 2.5 9.27273 2.5C11.281 2.5 12.9091 4.19137 12.9091 6.27778Z" stroke="#434343" stroke-opacity="0.45" stroke-width="4" stroke-linecap="round" stroke-linejoin="round"/>
</svg>
